<?xml version="1.0" encoding="UTF-8" standalone="no"?>
<!DOCTYPE svg PUBLIC "-//W3C//DTD SVG 20010904//EN" "http://www.w3.org/TR/2001/REC-SVG-20010904/DTD/svg10.dtd">
<svg version="1.0" xmlns="http://www.w3.org/2000/svg" width="225.000000pt" height="225.000000pt" viewBox="0 0 225.000000 225.000000" preserveAspectRatio="xMidYMid meet">

<g transform="translate(0.000000,225.000000) scale(0.100000,-0.100000)" fill="#000000" stroke="none">
<path d="M0 1125 l0 -1125 1125 0 1125 0 0 1125 0 1125 -1125 0 -1125 0 0 -1125z m590 900 c0 -23 -4 -25 -45 -25 -25 0 -45 5 -45 10 0 6 16 10 35 10 24 0 35 5 35 15 0 8 5 15 10 15 6 0 10 -11 10 -25z m1055 -3 c188 -52 318 -155 393 -312 50 -105 66 -178 65 -300 -1 -302 -172 -538 -453 -625 -35 -10 -106 -19 -192 -22 l-138 -6 0 -28 0 -29 80 0 80 0 0 -240 0 -240 -435 0 -435 0 0 240 0 240 80 0 80 0 0 440 0 440 -80 0 -80 0 0 236 0 235 478 -3 c455 -4 481 -5 557 -26z m-1070 -68 c34 -35 -6 -91 -52 -73 -43 16 -24 87 24 89 6 0 19 -7 28 -16z m3 -126 c28 -28 7 -78 -33 -78 -27 0 -45 18 -45 45 0 27 18 45 45 45 12 0 26 -5 33 -12z m7 -128 c-3 -5 -13 -10 -21 -10 -8 0 -14 -4 -14 -10 0 -5 6 -10 14 -10 8 0 18 -4 21 -10 4 -6 -12 -10 -39 -10 -25 0 -46 5 -46 10 0 6 7 10 15 10 8 0 15 5 15 10 0 6 -7 10 -15 10 -8 0 -15 5 -15 10 0 6 21 10 46 10 27 0 43 -4 39 -10z m-64 -108 c-12 -23 1 -45 25 -40 14 3 18 11 17 32 -2 33 20 31 25 -3 7 -42 -46 -69 -76 -39 -13 13 -16 50 -5 61 13 14 23 6 14 -11z m-5 -117 c-3 -8 -1 -15 3 -15 5 0 12 7 15 16 9 22 51 14 51 -10 0 -11 -5 -21 -12 -23 -7 -3 -10 4 -6 19 l5 23 -20 -24 c-12 -15 -25 -22 -36 -18 -16 6 -21 28 -9 40 11 12 15 8 9 -8z m69 -135 c3 -5 -3 -10 -14 -10 -12 0 -21 -7 -21 -15 0 -8 9 -15 20 -15 11 0 20 -4 20 -10 0 -5 -20 -10 -45 -10 -25 0 -45 5 -45 10 0 6 7 10 15 10 8 0 15 7 15 15 0 8 -7 15 -15 15 -8 0 -15 5 -15 10 0 6 18 10 39 10 22 0 43 -4 46 -10z m-13 -107 c24 -21 23 -45 -2 -68 -29 -27 -70 -7 -70 34 0 16 5 33 11 36 17 11 23 -3 9 -20 -11 -13 -11 -19 3 -32 20 -21 47 -10 46 19 -1 17 -2 18 -6 6 -7 -29 -23 -20 -23 12 0 34 6 37 32 13z m18 -123 c0 -5 -20 -10 -45 -10 -25 0 -45 5 -45 10 0 6 20 10 45 10 25 0 45 -4 45 -10z m0 -60 c0 -5 -9 -10 -20 -10 -11 0 -20 -7 -20 -15 0 -8 9 -15 20 -15 11 0 20 -4 20 -10 0 -5 -20 -10 -45 -10 -25 0 -45 5 -45 10 0 6 7 10 15 10 8 0 15 7 15 15 0 8 -7 15 -15 15 -8 0 -15 5 -15 10 0 6 20 10 45 10 25 0 45 -4 45 -10z m-56 -180 c3 0 7 8 7 18 1 16 2 16 6 0 5 -22 23 -24 23 -3 0 8 5 15 10 15 6 0 10 -11 10 -25 0 -23 -4 -25 -45 -25 -43 0 -45 2 -45 28 1 24 2 25 14 10 7 -10 16 -18 20 -18z m-13 -83 c-17 -21 -3 -49 23 -45 14 2 22 11 23 28 1 14 0 18 -3 8 -8 -27 -24 -22 -24 7 0 27 18 33 38 13 21 -21 14 -57 -14 -70 -31 -14 -57 -1 -62 31 -3 22 16 56 26 46 3 -2 0 -11 -7 -18z m69 -107 c0 -5 -4 -10 -10 -10 -14 0 -12 -38 3 -43 6 -2 9 -8 5 -12 -8 -9 -88 23 -88 35 0 7 64 37 83 39 4 1 7 -3 7 -9z m-70 -100 c0 -5 17 -10 37 -10 45 0 33 -15 -19 -23 -35 -5 -38 -4 -38 19 0 13 5 24 10 24 6 0 10 -4 10 -10z m25 -80 c4 -6 16 -8 28 -4 l22 7 -20 -23 c-11 -13 -15 -20 -8 -17 6 4 14 3 18 -3 4 -6 -11 -10 -39 -10 -42 0 -46 2 -46 24 0 30 32 48 45 26z m33 -102 c21 -21 14 -57 -14 -70 -31 -14 -57 -1 -62 31 -7 42 46 69 76 39z m-26 -128 c7 -11 18 -20 25 -20 7 0 13 -4 13 -10 0 -5 -20 -10 -45 -10 -40 0 -45 2 -45 23 0 41 31 51 52 17z"/>
<path d="M670 1816 l0 -176 85 0 85 0 -2 -502 -3 -503 -82 -3 -83 -3 0 -169 0 -170 375 0 375 0 0 170 0 170 -85 0 -85 0 0 94 0 93 158 6 c177 6 242 20 342 72 118 63 220 185 261 314 30 92 37 264 15 351 -53 213 -194 351 -411 405 -60 15 -134 19 -507 22 l-438 5 0 -176z m827 -221 c114 -46 160 -208 89 -315 -40 -61 -96 -82 -224 -84 l-107 -1 -3 200 c-1 110 0 206 3 214 8 20 185 10 242 -14z"/>
<path d="M1320 1405 l0 -145 65 0 c122 0 170 40 170 141 0 99 -58 149 -172 149 l-63 0 0 -145z"/>
<path d="M520 1935 c-11 -13 -11 -19 3 -32 21 -21 49 -9 45 19 -4 28 -30 35 -48 13z"/>
<path d="M518 1808 c-9 -23 3 -38 28 -38 19 0 24 5 24 25 0 20 -5 25 -24 25 -13 0 -26 -6 -28 -12z"/>
<path d="M535 650 c-3 -5 -1 -10 4 -10 6 0 11 5 11 10 0 6 -2 10 -4 10 -3 0 -8 -4 -11 -10z"/>
<path d="M520 480 c0 -5 5 -10 10 -10 6 0 10 5 10 10 0 6 -4 10 -10 10 -5 0 -10 -4 -10 -10z"/>
<path d="M525 387 c-10 -8 -14 -19 -9 -30 9 -25 48 -18 52 9 4 26 -20 37 -43 21z"/>
<path d="M520 260 c0 -5 5 -10 10 -10 6 0 10 5 10 10 0 6 -4 10 -10 10 -5 0 -10 -4 -10 -10z"/>
</g>
</svg>